<svg width="326" height="310" viewBox="0 0 326 310" fill="none" xmlns="http://www.w3.org/2000/svg">
<path d="M261.491 62C220.928 64.3311 181.167 49.1532 150.933 19.7969C120.699 49.1532 80.9384 64.3311 40.3753 62C37.1109 75.6759 35.4642 89.7451 35.4748 103.87C35.4748 181.488 84.5317 246.722 150.933 265.214C217.334 246.722 266.391 181.501 266.391 103.87C266.391 89.4043 264.685 75.3828 261.491 62Z" stroke="white" stroke-width="2" stroke-linecap="round" stroke-linejoin="round"/>
<path d="M261.491 62C220.928 64.3311 181.167 49.1532 150.933 19.7969C120.699 49.1532 80.9384 64.3311 40.3753 62C37.1109 75.6759 35.4642 89.7451 35.4748 103.87C35.4748 181.488 84.5317 246.722 150.933 265.214C217.334 246.722 266.391 181.501 266.391 103.87C266.391 89.4043 264.685 75.3828 261.491 62Z" stroke="black" stroke-opacity="0.2" stroke-width="2" stroke-linecap="round" stroke-linejoin="round"/>
<path d="M261.491 62C220.928 64.3311 181.167 49.1532 150.933 19.7969C120.699 49.1532 80.9384 64.3311 40.3753 62C37.1109 75.6759 35.4642 89.7451 35.4748 103.87C35.4748 181.488 84.5317 246.722 150.933 265.214C217.334 246.722 266.391 181.501 266.391 103.87C266.391 89.4043 264.685 75.3828 261.491 62Z" stroke="white" stroke-opacity="0.35" stroke-width="2" stroke-linecap="round" stroke-linejoin="round"/>
<path fill-rule="evenodd" clip-rule="evenodd" d="M119.75 137.1V125.3C119.75 117.476 123.095 109.973 129.049 104.44C135.004 98.908 143.079 95.8 151.5 95.8C159.921 95.8 167.996 98.908 173.951 104.44C179.905 109.973 183.25 117.476 183.25 125.3V137.1C186.618 137.1 189.849 138.343 192.23 140.556C194.612 142.769 195.95 145.77 195.95 148.9V178.4C195.95 181.53 194.612 184.531 192.23 186.744C189.849 188.957 186.618 190.2 183.25 190.2H119.75C116.382 190.2 113.151 188.957 110.77 186.744C108.388 184.531 107.05 181.53 107.05 178.4V148.9C107.05 145.77 108.388 142.769 110.77 140.556C113.151 138.343 116.382 137.1 119.75 137.1ZM170.55 125.3V137.1H132.45V125.3C132.45 120.606 134.457 116.104 138.03 112.784C141.602 109.465 146.448 107.6 151.5 107.6C156.552 107.6 161.398 109.465 164.97 112.784C168.543 116.104 170.55 120.606 170.55 125.3Z" fill="#F8F8F8"/>
</svg>
